:SAMPLES-PER-SECOND 30
:FULLY-SPECIFIED
:DEGREES
503
root  1.50507 40.0711 12.4387 -174.938 -7.93643 -179.699
RightUpLeg  -9.04151 -7.26464 -4.84458
RightLeg  9.42831 -2.39769 -0.448691
RightFoot  -2.26831 -0.33875 4.07233
RightToes  -1.33073e-015 0 -3.6325e-017
Spine  11.5837 -0.891755 10.3292
Spine1  13.7118 -0.0277539 -0.133968
HEad  13.3299 -11.9772 1.93356
LeftShoulder1  7.14748 -16.1417 -30.3313
LeftArm  51.6302 -27.8244 -64.3268
LeftForeArm  -28.6548 -23.0242 -6.65532
LeftHand  -0.246645 0.021 5.37786
RightShoulder  9.03228 16.8631 38.2571
RightArm  19.0315 25.4768 41.1887
RightForeArm  -8.82771 27.7798 6.45211
RightHand  -0.24729 -0.0210522 -5.37781
LeftUpLeg  -10.7215 12.6289 12.6134
LeftLeg  5.13482 -5.54195 -2.68136
LeftFoot  5.02608 1.30006 -9.23912
LeftToes  5.09284e-011 3.02203e-011 3.83118e-011
504
root  1.32024 40.0318 12.4425 -174.893 -7.16379 -179.36
RightUpLeg  -9.25878 -7.13022 -4.73877
RightLeg  9.43371 -1.74768 -0.406572
RightFoot  -2.21408 -0.361905 4.34171
RightToes  -1.33073e-015 0 -3.6325e-017
Spine  12.0125 -0.817579 10.325
Spine1  13.4448 -0.0434065 0.308844
HEad  12.7916 -12.117 1.69884
LeftShoulder1  7.07597 -16.1492 -29.9471
LeftArm  50.914 -28.021 -65.3973
LeftForeArm  -24.9809 -20.9157 -7.80936
LeftHand  -0.246645 0.021 5.37786
RightShoulder  9.17849 17.0323 38.5881
RightArm  19.4651 25.1817 40.8486
RightForeArm  -10.2703 27.3888 6.42863
RightHand  -0.24729 -0.0210522 -5.37781
LeftUpLeg  -10.4199 12.3329 12.6931
LeftLeg  5.09879 -4.41756 -2.37682
LeftFoot  3.9243 1.29242 -9.80425
LeftToes  5.09284e-011 3.02203e-011 3.83118e-011
505
root  1.06694 40.0065 12.4237 -174.801 -6.60706 -179.083
RightUpLeg  -9.35187 -7.0229 -4.7845
RightLeg  9.27723 -1.27341 -0.429864
RightFoot  -2.10466 -0.389288 4.63794
RightToes  -1.33073e-015 0 -3.6325e-017
Spine  12.1544 -0.791855 10.1569
Spine1  13.4541 -0.158048 0.762221
HEad  11.9321 -12.0646 1.73302
LeftShoulder1  7.10769 -16.1788 -30.0556
LeftArm  48.7931 -27.5449 -65.6734
LeftForeArm  -20.9573 -19.4889 -8.81722
LeftHand  -0.246645 0.021 5.37786
RightShoulder  9.25258 17.1083 38.7738
RightArm  19.2604 24.5296 40.739
RightForeArm  -10.9163 27.31 6.44111
RightHand  -0.24729 -0.0210522 -5.37781
LeftUpLeg  -10.3952 12.1456 12.5835
LeftLeg  5.44382 -3.17345 -2.10425
LeftFoot  2.86633 1.22793 -9.97216
LeftToes  5.09284e-011 3.02203e-011 3.83118e-011
506
root  0.770962 39.9982 12.4082 -174.701 -6.28583 -179.038
RightUpLeg  -9.42153 -6.99427 -5.10337
RightLeg  9.16318 -0.905335 -0.570449
RightFoot  -1.95359 -0.421233 4.96361
RightToes  -1.33073e-015 0 -3.6325e-017
Spine  12.2746 -0.78615 9.60425
Spine1  13.5843 -0.334993 1.20957
HEad  11.0144 -12.0479 2.19409
LeftShoulder1  7.16637 -16.2114 -30.2969
LeftArm  48.1235 -26.6526 -65.3663
LeftForeArm  -18.5513 -19.2447 -8.88148
LeftHand  -0.246645 0.021 5.37786
RightShoulder  9.25305 17.0806 38.8342
RightArm  18.3345 23.6841 40.8238
RightForeArm  -10.7462 27.727 6.53386
RightHand  -0.24729 -0.0210522 -5.37781
LeftUpLeg  -10.6064 12.0962 12.1964
LeftLeg  6.05524 -2.98213 -2.09682
LeftFoot  2.06313 1.13 -9.70595
LeftToes  5.09284e-011 3.02203e-011 3.83118e-011
507
root  0.458868 39.9995 12.4188 -174.616 -5.84102 -179.197
RightUpLeg  -9.63368 -6.88374 -5.58992
RightLeg  9.23597 -0.48921 -0.867632
RightFoot  -1.74481 -0.465072 5.39332
RightToes  -1.33073e-015 0 -3.6325e-017
Spine  12.7104 -0.657766 8.51196
Spine1  13.501 -0.444905 1.77929
HEad  10.3615 -12.1059 2.55717
LeftShoulder1  7.23559 -16.2979 -30.4891
LeftArm  48.0821 -25.3751 -64.7114
LeftForeArm  -16.8223 -19.6123 -8.43091
LeftHand  -0.246645 0.021 5.37786
RightShoulder  9.20307 17.0019 38.7672
RightArm  17.3358 22.9635 41.0432
RightForeArm  -10.505 28.4247 6.6928
RightHand  -0.24729 -0.0210522 -5.37781
LeftUpLeg  -10.7706 12.2021 11.673
LeftLeg  6.6352 -2.95053 -2.32384
LeftFoot  1.61778 1.04946 -9.31362
LeftToes  5.09284e-011 3.02203e-011 3.83118e-011
508
root  0.141444 39.9994 12.4473 -174.481 -4.89815 -179.421
RightUpLeg  -10.1173 -6.36495 -6.07947
RightLeg  9.45211 -0.0104698 -1.284
RightFoot  -1.50203 -0.509402 5.79359
RightToes  -1.33073e-015 0 -3.6325e-017
Spine  13.3531 -0.29597 7.03848
Spine1  13.1796 -0.347731 2.4049
HEad  10.0194 -12.0774 2.47519
LeftShoulder1  7.35313 -16.4581 -30.7862
LeftArm  47.3972 -23.7691 -63.6772
LeftForeArm  -14.9511 -19.9036 -8.02841
LeftHand  -0.246645 0.021 5.37786
RightShoulder  9.09528 16.8995 38.4776
RightArm  16.7771 22.4796 41.5445
RightForeArm  -10.7086 29.0098 6.84794
RightHand  -0.24729 -0.0210522 -5.37781
LeftUpLeg  -10.7659 12.3638 11.1806
LeftLeg  7.04376 -2.12108 -2.61938
LeftFoot  1.31739 0.996277 -9.04193
LeftToes  5.09284e-011 3.02203e-011 3.83118e-011
509
root  -0.173677 39.9883 12.4778 -174.229 -3.51686 -179.647
RightUpLeg  -10.8891 -5.25087 -6.6156
RightLeg  9.76065 0.365222 -1.65071
RightFoot  -1.28368 -0.545751 6.09696
RightToes  -1.33073e-015 0 -3.6325e-017
Spine  13.8495 0.214272 5.49313
Spine1  12.8587 -0.0549125 2.8281
HEad  9.79701 -11.8798 2.25111
LeftShoulder1  7.50942 -16.6389 -31.234
LeftArm  46.1892 -22.1486 -62.2693
LeftForeArm  -13.5968 -20.052 -7.78266
LeftHand  -0.246645 0.021 5.37786
RightShoulder  8.92977 16.7705 37.9665
RightArm  17.01 22.254 42.5198
RightForeArm  -11.1587 29.1134 6.89621
RightHand  -0.24729 -0.0210522 -5.37781
LeftUpLeg  -10.7577 12.4789 10.726
LeftLeg  7.39654 -0.76328 -2.89448
LeftFoot  0.921764 0.946818 -8.85421
LeftToes  5.09284e-011 3.02203e-011 3.83118e-011
510
root  -0.470474 39.9619 12.5182 -173.898 -2.03983 -179.864
RightUpLeg  -11.9335 -3.83622 -7.31824
RightLeg  10.3181 0.67798 -1.77743
RightFoot  -1.06764 -0.610298 6.69787
RightToes  -1.33073e-015 0 -3.6325e-017
Spine  14.1691 0.682964 4.12791
Spine1  12.6037 0.313103 2.87271
HEad  9.4701 -11.5471 2.20807
LeftShoulder1  7.63193 -16.784 -31.5722
LeftArm  44.8556 -20.7906 -60.8539
LeftForeArm  -13.726 -20.4129 -7.44607
LeftHand  -0.246645 0.021 5.37786
RightShoulder  8.75474 16.6313 37.4226
RightArm  18.1756 22.3509 43.9038
RightForeArm  -11.7235 28.6249 6.80219
RightHand  -0.24729 -0.0210522 -5.37781
LeftUpLeg  -10.9611 12.621 10.2566
LeftLeg  7.92891 0.44232 -3.11619
LeftFoot  0.395159 0.890324 -8.67536
LeftToes  5.09284e-011 3.02203e-011 3.83118e-011
511
root  -0.745038 39.9406 12.5838 -173.563 -0.62471 -179.945
RightUpLeg  -13.126 -2.52286 -8.04211
RightLeg  11.0202 1.16524 -1.63346
RightFoot  -0.587414 -0.742195 7.82476
RightToes  -1.33073e-015 0 -3.6325e-017
Spine  14.5846 1.04929 3.27907
Spine1  12.2536 0.715136 2.64925
HEad  8.94746 -11.104 2.19147
LeftShoulder1  7.67218 -16.8712 -31.6076
LeftArm  43.1121 -19.7165 -59.9813
LeftForeArm  -15.6954 -21.1664 -6.9248
LeftHand  -0.246645 0.021 5.37786
RightShoulder  8.62313 16.5222 37.0164
RightArm  19.6862 22.6297 45.3131
RightForeArm  -12.9472 27.8708 6.67507
RightHand  -0.24729 -0.0210522 -5.37781
LeftUpLeg  -11.3337 12.8327 9.87285
LeftLeg  8.58638 1.51301 -3.19777
LeftFoot  -0.121631 0.840509 -8.54031
LeftToes  5.09284e-011 3.02203e-011 3.83118e-011
512
root  -0.986592 39.9406 12.6655 -173.26 0.7332 -179.883
RightUpLeg  -14.3473 -1.26488 -8.66381
RightLeg  11.734 1.87571 -1.33317
RightFoot  0.143725 -0.877541 8.72397
RightToes  -1.33073e-015 0 -3.6325e-017
Spine  15.2249 1.38475 2.92201
Spine1  11.7137 1.17908 2.32706
HEad  8.38108 -10.606 1.97571
LeftShoulder1  7.65721 -16.8923 -31.4942
LeftArm  40.5904 -19.0121 -59.8143
LeftForeArm  -19.2731 -21.9447 -6.56361
LeftHand  -0.246645 0.021 5.37786
RightShoulder  8.55145 16.471 36.7756
RightArm  20.5561 22.7312 46.3643
RightForeArm  -15.0676 27.2567 6.62538
RightHand  -0.24729 -0.0210522 -5.37781
LeftUpLeg  -11.672 12.9342 9.60644
LeftLeg  9.08666 2.79611 -3.08037
LeftFoot  -0.479708 0.809532 -8.47559
LeftToes  5.09284e-011 3.02203e-011 3.83118e-011
513
root  -1.16673 39.9541 12.7402 -173.017 1.86742 -179.802
RightUpLeg  -15.342 -0.00917363 -9.17355
RightLeg  12.1928 2.85222 -1.03995
RightFoot  0.73356 -0.902501 8.56726
RightToes  -1.33073e-015 0 -3.6325e-017
Spine  15.9387 1.68496 2.75783
Spine1  11.1016 1.61378 2.04267
HEad  8.03357 -10.1502 1.65909
LeftShoulder1  7.63826 -16.8701 -31.442
LeftArm  37.8403 -18.9066 -60.1167
LeftForeArm  -23.6824 -22.0999 -6.70267
LeftHand  -0.246645 0.021 5.37786
RightShoulder  8.54099 16.4774 36.711
RightArm  20.6158 22.6495 46.9514
RightForeArm  -17.1255 26.7072 6.58731
RightHand  -0.24729 -0.0210522 -5.37781
LeftUpLeg  -11.8646 12.8173 9.42663
LeftLeg  9.278 4.08588 -2.89884
LeftFoot  -0.618527 0.796285 -8.4361
LeftToes  5.09284e-011 3.02203e-011 3.83118e-011
514
root  -1.25004 39.9554 12.7989 -172.891 2.42412 -179.807
RightUpLeg  -15.7305 0.814685 -9.53212
RightLeg  12.0354 4.15695 -0.913615
RightFoot  0.829515 -0.840019 7.9176
RightToes  -1.33073e-015 0 -3.6325e-017
Spine  16.5226 1.80567 2.53319
Spine1  10.6692 1.79237 1.89354
HEad  7.90266 -9.73131 1.40102
LeftShoulder1  7.6283 -16.8756 -31.3825
LeftArm  35.4454 -19.3923 -60.7041
LeftForeArm  -26.8042 -21.247 -7.40251
LeftHand  -0.246645 0.021 5.37786
RightShoulder  8.58698 16.5223 36.8406
RightArm  20.577 22.9185 47.3164
RightForeArm  -18.1756 25.8673 6.43419
RightHand  -0.24729 -0.0210522 -5.37781
LeftUpLeg  -11.9759 12.6864 9.33548
LeftLeg  9.30831 4.71062 -2.88343
LeftFoot  -0.615839 0.79434 -8.41348
LeftToes  5.09284e-011 3.02203e-011 3.83118e-011
515
root  -1.22246 39.9279 12.8431 -172.869 2.22363 -179.926
RightUpLeg  -15.4159 0.644231 -9.67153
RightLeg  11.2438 5.5609 -1.02639
RightFoot  0.439209 -0.821 7.97834
RightToes  -1.33073e-015 0 -3.6325e-017
Spine  16.8316 1.6547 2.204
Spine1  10.6068 1.60092 1.88762
HEad  7.70218 -9.31646 1.18896
LeftShoulder1  7.62076 -16.9554 -31.1971
LeftArm  33.0027 -20.2109 -61.522
LeftForeArm  -25.8074 -19.4533 -8.65975
LeftHand  -0.246645 0.021 5.37786
RightShoulder  8.65175 16.5754 37.0431
RightArm  20.7512 23.8679 47.7717
RightForeArm  -18.8188 24.8397 6.22104
RightHand  -0.24729 -0.0210522 -5.37781
LeftUpLeg  -12.164 12.7119 9.2951
LeftLeg  9.40025 4.40944 -3.05375
LeftFoot  -0.589836 0.800627 -8.46133
LeftToes  5.09284e-011 3.02203e-011 3.83118e-011
516
root  -1.10275 39.8887 12.8687 -172.84 1.48863 179.871
RightUpLeg  -14.7396 -0.57016 -9.5781
RightLeg  10.2081 6.66281 -1.25845
RightFoot  -0.138073 -0.851063 8.65142
RightToes  -1.33073e-015 0 -3.6325e-017
Spine  16.8353 1.34441 1.98685
Spine1  10.8529 1.2278 1.89392
HEad  7.37186 -9.08545 1.06272
LeftShoulder1  7.63102 -17.0627 -31.0496
LeftArm  29.865 -21.3696 -62.3539
LeftForeArm  -19.6438 -16.7826 -10.3314
LeftHand  -0.246645 0.021 5.37786
RightShoulder  8.68614 16.6151 37.126
RightArm  20.8502 25.1266 48.3238
RightForeArm  -20.1555 24.125 6.11332
RightHand  -0.24729 -0.0210522 -5.37781
LeftUpLeg  -12.4615 12.7112 9.21913
LeftLeg  9.4664 3.67969 -3.17985
LeftFoot  -0.470833 0.821296 -8.59192
LeftToes  5.09284e-011 3.02203e-011 3.83118e-011
